<?xml version="1.0" standalone="no"?>
<!DOCTYPE svg PUBLIC "-//W3C//DTD SVG 1.1//EN" 
  "http://www.w3.org/Graphics/SVG/1.1/DTD/svg11.dtd">
<!-- Created with ASCIIToSVG (http://9vx.org/~dho/a2s/) -->
<svg width="963px" height="944px" version="1.1"
  xmlns="http://www.w3.org/2000/svg" xmlns:xlink="http://www.w3.org/1999/xlink">
  <defs>
    <filter id="dsFilter" width="150%" height="150%">
      <feOffset result="offOut" in="SourceGraphic" dx="3" dy="3"/>
      <feColorMatrix result="matrixOut" in="offOut" type="matrix" values="0.2 0 0 0 0 0 0.2 0 0 0 0 0 0.2 0 0 0 0 0 1 0"/>
      <feBlend in="SourceGraphic" in2="matrixOut" mode="normal"/>
    </filter>
    <marker id="iPointer"
      viewBox="0 0 10 10" refX="5" refY="5" 
      markerUnits="strokeWidth"
      markerWidth="8" markerHeight="7"
      orient="auto">
      <path d="M 10 0 L 10 10 L 0 5 z" />
    </marker>
    <marker id="Pointer"
      viewBox="0 0 10 10" refX="5" refY="5" 
      markerUnits="strokeWidth"
      markerWidth="8" markerHeight="7"
      orient="auto">
      <path d="M 0 0 L 10 5 L 0 10 z" />
    </marker>
  </defs><g id="boxes" stroke="black" stroke-width="2" fill="none" >
<g id="groupPC">
	<path id="pathPC" d="M 141.294019968 13.900332224 L 141.294019968 69.18272384 C 141.28807122 71.70548768 140.81647572 74.55937856 144.651002436 74.35113728 L 184.02039828 74.35113728 C 188.075862 81.17438048 165.15775332 78.89918528 160.10013276 79.01661152 C 159.72287148 96.203216 171.80737488 101.87798912 191.5223472 101.30511296 C 211.54161708 101.9294048 224.71436196 96.40803008 223.86533184 79.17266912 C 219.42506736 79.34438336 194.59008288 80.9552816 198.09751248 74.09140544 L 242.62504956 74.09140544 C 245.57340312 74.06049152 246.3652116 72.5918816 246.13369092 70.44105152 L 246.13369092 14.697674432 C 246.08741724 13.064506304 244.30531896 10.891154912 241.38933732 10.48047104 L 145.181063088 10.48047104 C 142.961056236 10.524927584 141.14664414 11.050088864 141.294019968 13.900332224 Z " filter="url(#dsFilter)" fill="#fff"  />
	<text x="170.1" y="44.8" id="text0" fill="#000" stroke="none" style="font-family:LMMono10,monospace;font-size:15.2px" >Alice </text>

</g>
<g id="groupPC">
	<path id="pathPC" d="M 717.294019968 13.900332224 L 717.294019968 69.18272384 C 717.28807122 71.70548768 716.81647572 74.55937856 720.651002436 74.35113728 L 760.02039828 74.35113728 C 764.075862 81.17438048 741.15775332 78.89918528 736.10013276 79.01661152 C 735.72287148 96.203216 747.80737488 101.87798912 767.5223472 101.30511296 C 787.54161708 101.9294048 800.71436196 96.40803008 799.86533184 79.17266912 C 795.42506736 79.34438336 770.59008288 80.9552816 774.09751248 74.09140544 L 818.62504956 74.09140544 C 821.57340312 74.06049152 822.3652116 72.5918816 822.13369092 70.44105152 L 822.13369092 14.697674432 C 822.08741724 13.064506304 820.30531896 10.891154912 817.38933732 10.48047104 L 721.181063088 10.48047104 C 718.961056236 10.524927584 717.14664414 11.050088864 717.294019968 13.900332224 Z " filter="url(#dsFilter)" fill="#fff"  />
	<text x="755.1" y="44.8" id="text1" fill="#000" stroke="none" style="font-family:LMMono10,monospace;font-size:15.2px" >Bob </text>

</g>
<g id="group8">
	<path id="path8" filter="url(#dsFilter)" fill="#fff" d="M 121.5 178 Q 121.5 168 131.5 168 L 255.5 168 Q 265.5 168 265.5 178 L 265.5 238 Q 265.5 248 255.5 248 L 131.5 248 Q 121.5 248 121.5 238 Z" />
	<text x="152.1" y="204.8" id="text8" fill="#000" stroke="none" style="font-family:LMMono10,monospace;font-size:15.2px" >cleartext </text>

	<text x="134.1" y="220.8" id="text8" fill="#000" stroke="none" style="font-family:LMMono10,monospace;font-size:15.2px" >(+attachment) </text>

</g>
<g id="group10">
	<path id="path10" filter="url(#dsFilter)" fill="#fff" d="M 697.5 178 Q 697.5 168 707.5 168 L 831.5 168 Q 841.5 168 841.5 178 L 841.5 238 Q 841.5 248 831.5 248 L 707.5 248 Q 697.5 248 697.5 238 Z" />
	<text x="728.1" y="204.8" id="text10" fill="#000" stroke="none" style="font-family:LMMono10,monospace;font-size:15.2px" >cleartext </text>

	<text x="710.1" y="220.8" id="text10" fill="#000" stroke="none" style="font-family:LMMono10,monospace;font-size:15.2px" >(+attachment) </text>

</g>
<g id="group18">
	<path id="path18" filter="url(#dsFilter)" fill="#fff" d="M 121.5 322 Q 121.5 312 131.5 312 L 255.5 312 Q 265.5 312 265.5 322 L 265.5 382 Q 265.5 392 255.5 392 L 131.5 392 Q 121.5 392 121.5 382 Z" />
	<text x="134.1" y="348.8" id="text18" fill="#000" stroke="none" style="font-family:LMMono10,monospace;font-size:15.2px" >MIME multipart </text>

	<text x="161.1" y="364.8" id="text18" fill="#000" stroke="none" style="font-family:LMMono10,monospace;font-size:15.2px" >message </text>

</g>
<g id="group20">
	<path id="path20" filter="url(#dsFilter)" fill="#fff" d="M 697.5 322 Q 697.5 312 707.5 312 L 831.5 312 Q 841.5 312 841.5 322 L 841.5 382 Q 841.5 392 831.5 392 L 707.5 392 Q 697.5 392 697.5 382 Z" />
	<text x="710.1" y="348.8" id="text20" fill="#000" stroke="none" style="font-family:LMMono10,monospace;font-size:15.2px" >MIME multipart </text>

	<text x="737.1" y="364.8" id="text20" fill="#000" stroke="none" style="font-family:LMMono10,monospace;font-size:15.2px" >message </text>

</g>
<g id="group26">
	<path id="path26" filter="url(#dsFilter)" fill="#fff" d="M 4.5 466 Q 4.5 456 14.5 456 L 84.5 456 Q 94.5 456 94.5 466 L 94.5 494 Q 94.5 504 84.5 504 L 14.5 504 Q 4.5 504 4.5 494 Z" />
	<text x="26.1" y="476.8" id="text26" fill="#000" stroke="none" style="font-family:LMMono10,monospace;font-size:15.2px" >chunk </text>

	<text x="35.1" y="492.8" id="text26" fill="#000" stroke="none" style="font-family:LMMono10,monospace;font-size:15.2px" >1/n </text>

</g>
<g id="group28">
	<path id="path28" filter="url(#dsFilter)" fill="#fff" d="M 148.5 466 Q 148.5 456 158.5 456 L 228.5 456 Q 238.5 456 238.5 466 L 238.5 494 Q 238.5 504 228.5 504 L 158.5 504 Q 148.5 504 148.5 494 Z" />
	<text x="170.1" y="476.8" id="text28" fill="#000" stroke="none" style="font-family:LMMono10,monospace;font-size:15.2px" >chunk </text>

	<text x="179.1" y="492.8" id="text28" fill="#000" stroke="none" style="font-family:LMMono10,monospace;font-size:15.2px" >m/n </text>

</g>
<g id="group30">
	<path id="path30" filter="url(#dsFilter)" fill="#fff" d="M 292.5 466 Q 292.5 456 302.5 456 L 372.5 456 Q 382.5 456 382.5 466 L 382.5 494 Q 382.5 504 372.5 504 L 302.5 504 Q 292.5 504 292.5 494 Z" />
	<text x="314.1" y="476.8" id="text30" fill="#000" stroke="none" style="font-family:LMMono10,monospace;font-size:15.2px" >chunk </text>

	<text x="323.1" y="492.8" id="text30" fill="#000" stroke="none" style="font-family:LMMono10,monospace;font-size:15.2px" >n/n </text>

</g>
<g id="group32">
	<path id="path32" filter="url(#dsFilter)" fill="#fff" d="M 580.5 466 Q 580.5 456 590.5 456 L 660.5 456 Q 670.5 456 670.5 466 L 670.5 494 Q 670.5 504 660.5 504 L 590.5 504 Q 580.5 504 580.5 494 Z" />
	<text x="602.1" y="476.8" id="text32" fill="#000" stroke="none" style="font-family:LMMono10,monospace;font-size:15.2px" >chunk </text>

	<text x="611.1" y="492.8" id="text32" fill="#000" stroke="none" style="font-family:LMMono10,monospace;font-size:15.2px" >1/n </text>

</g>
<g id="group34">
	<path id="path34" filter="url(#dsFilter)" fill="#fff" d="M 724.5 466 Q 724.5 456 734.5 456 L 804.5 456 Q 814.5 456 814.5 466 L 814.5 494 Q 814.5 504 804.5 504 L 734.5 504 Q 724.5 504 724.5 494 Z" />
	<text x="746.1" y="476.8" id="text34" fill="#000" stroke="none" style="font-family:LMMono10,monospace;font-size:15.2px" >chunk </text>

	<text x="755.1" y="492.8" id="text34" fill="#000" stroke="none" style="font-family:LMMono10,monospace;font-size:15.2px" >m/n </text>

</g>
<g id="group36">
	<path id="path36" filter="url(#dsFilter)" fill="#fff" d="M 868.5 466 Q 868.5 456 878.5 456 L 948.5 456 Q 958.5 456 958.5 466 L 958.5 494 Q 958.5 504 948.5 504 L 878.5 504 Q 868.5 504 868.5 494 Z" />
	<text x="890.1" y="476.8" id="text36" fill="#000" stroke="none" style="font-family:LMMono10,monospace;font-size:15.2px" >chunk </text>

	<text x="899.1" y="492.8" id="text36" fill="#000" stroke="none" style="font-family:LMMono10,monospace;font-size:15.2px" >n/n </text>

</g>
<g id="group62">
	<path id="path62" filter="url(#dsFilter)" fill="#fff" d="M 4.5 578 Q 4.5 568 14.5 568 L 84.5 568 Q 94.5 568 94.5 578 L 94.5 606 Q 94.5 616 84.5 616 L 14.5 616 Q 4.5 616 4.5 606 Z" />
	<text x="8.1" y="588.8" id="text62" fill="#000" stroke="none" style="font-family:LMMono10,monospace;font-size:15.2px" >encrypted </text>

	<text x="26.1" y="604.8" id="text62" fill="#000" stroke="none" style="font-family:LMMono10,monospace;font-size:15.2px" >chunk </text>

</g>
<g id="group64">
	<path id="path64" filter="url(#dsFilter)" fill="#fff" d="M 148.5 578 Q 148.5 568 158.5 568 L 228.5 568 Q 238.5 568 238.5 578 L 238.5 606 Q 238.5 616 228.5 616 L 158.5 616 Q 148.5 616 148.5 606 Z" />
	<text x="152.1" y="588.8" id="text64" fill="#000" stroke="none" style="font-family:LMMono10,monospace;font-size:15.2px" >encrypted </text>

	<text x="170.1" y="604.8" id="text64" fill="#000" stroke="none" style="font-family:LMMono10,monospace;font-size:15.2px" >chunk </text>

</g>
<g id="group66">
	<path id="path66" filter="url(#dsFilter)" fill="#fff" d="M 292.5 578 Q 292.5 568 302.5 568 L 372.5 568 Q 382.5 568 382.5 578 L 382.5 606 Q 382.5 616 372.5 616 L 302.5 616 Q 292.5 616 292.5 606 Z" />
	<text x="296.1" y="588.8" id="text66" fill="#000" stroke="none" style="font-family:LMMono10,monospace;font-size:15.2px" >encrypted </text>

	<text x="314.1" y="604.8" id="text66" fill="#000" stroke="none" style="font-family:LMMono10,monospace;font-size:15.2px" >chunk </text>

</g>
<g id="group68">
	<path id="path68" filter="url(#dsFilter)" fill="#fff" d="M 580.5 578 Q 580.5 568 590.5 568 L 660.5 568 Q 670.5 568 670.5 578 L 670.5 606 Q 670.5 616 660.5 616 L 590.5 616 Q 580.5 616 580.5 606 Z" />
	<text x="584.1" y="588.8" id="text68" fill="#000" stroke="none" style="font-family:LMMono10,monospace;font-size:15.2px" >encrypted </text>

	<text x="602.1" y="604.8" id="text68" fill="#000" stroke="none" style="font-family:LMMono10,monospace;font-size:15.2px" >chunk </text>

</g>
<g id="group70">
	<path id="path70" filter="url(#dsFilter)" fill="#fff" d="M 724.5 578 Q 724.5 568 734.5 568 L 804.5 568 Q 814.5 568 814.5 578 L 814.5 606 Q 814.5 616 804.5 616 L 734.5 616 Q 724.5 616 724.5 606 Z" />
	<text x="728.1" y="588.8" id="text70" fill="#000" stroke="none" style="font-family:LMMono10,monospace;font-size:15.2px" >encrypted </text>

	<text x="746.1" y="604.8" id="text70" fill="#000" stroke="none" style="font-family:LMMono10,monospace;font-size:15.2px" >chunk </text>

</g>
<g id="group72">
	<path id="path72" filter="url(#dsFilter)" fill="#fff" d="M 868.5 578 Q 868.5 568 878.5 568 L 948.5 568 Q 958.5 568 958.5 578 L 958.5 606 Q 958.5 616 948.5 616 L 878.5 616 Q 868.5 616 868.5 606 Z" />
	<text x="872.1" y="588.8" id="text72" fill="#000" stroke="none" style="font-family:LMMono10,monospace;font-size:15.2px" >encrypted </text>

	<text x="890.1" y="604.8" id="text72" fill="#000" stroke="none" style="font-family:LMMono10,monospace;font-size:15.2px" >chunk </text>

</g>
<g id="group98">
	<path id="path98" filter="url(#dsFilter)" fill="#fff" d="M 4.5 690 Q 4.5 680 14.5 680 L 84.5 680 Q 94.5 680 94.5 690 L 94.5 718 Q 94.5 728 84.5 728 L 14.5 728 Q 4.5 728 4.5 718 Z" />
	<text x="35.1" y="700.8" id="text98" fill="#000" stroke="none" style="font-family:LMMono10,monospace;font-size:15.2px" >mix </text>

	<text x="8.1" y="716.8" id="text98" fill="#000" stroke="none" style="font-family:LMMono10,monospace;font-size:15.2px" >envelope </text>

</g>
<g id="group100">
	<path id="path100" filter="url(#dsFilter)" fill="#fff" d="M 148.5 690 Q 148.5 680 158.5 680 L 228.5 680 Q 238.5 680 238.5 690 L 238.5 718 Q 238.5 728 228.5 728 L 158.5 728 Q 148.5 728 148.5 718 Z" />
	<text x="179.1" y="700.8" id="text100" fill="#000" stroke="none" style="font-family:LMMono10,monospace;font-size:15.2px" >mix </text>

	<text x="152.1" y="716.8" id="text100" fill="#000" stroke="none" style="font-family:LMMono10,monospace;font-size:15.2px" >envelope </text>

</g>
<g id="group102">
	<path id="path102" filter="url(#dsFilter)" fill="#fff" d="M 292.5 690 Q 292.5 680 302.5 680 L 372.5 680 Q 382.5 680 382.5 690 L 382.5 718 Q 382.5 728 372.5 728 L 302.5 728 Q 292.5 728 292.5 718 Z" />
	<text x="323.1" y="700.8" id="text102" fill="#000" stroke="none" style="font-family:LMMono10,monospace;font-size:15.2px" >mix </text>

	<text x="296.1" y="716.8" id="text102" fill="#000" stroke="none" style="font-family:LMMono10,monospace;font-size:15.2px" >envelope </text>

</g>
<g id="group104">
	<path id="path104" filter="url(#dsFilter)" fill="#fff" d="M 580.5 690 Q 580.5 680 590.5 680 L 660.5 680 Q 670.5 680 670.5 690 L 670.5 718 Q 670.5 728 660.5 728 L 590.5 728 Q 580.5 728 580.5 718 Z" />
	<text x="593.1" y="700.8" id="text104" fill="#000" stroke="none" style="font-family:LMMono10,monospace;font-size:15.2px" >account </text>

	<text x="584.1" y="716.8" id="text104" fill="#000" stroke="none" style="font-family:LMMono10,monospace;font-size:15.2px" >envelope </text>

</g>
<g id="group106">
	<path id="path106" filter="url(#dsFilter)" fill="#fff" d="M 724.5 690 Q 724.5 680 734.5 680 L 804.5 680 Q 814.5 680 814.5 690 L 814.5 718 Q 814.5 728 804.5 728 L 734.5 728 Q 724.5 728 724.5 718 Z" />
	<text x="737.1" y="700.8" id="text106" fill="#000" stroke="none" style="font-family:LMMono10,monospace;font-size:15.2px" >account </text>

	<text x="728.1" y="716.8" id="text106" fill="#000" stroke="none" style="font-family:LMMono10,monospace;font-size:15.2px" >envelope </text>

</g>
<g id="group108">
	<path id="path108" filter="url(#dsFilter)" fill="#fff" d="M 868.5 690 Q 868.5 680 878.5 680 L 948.5 680 Q 958.5 680 958.5 690 L 958.5 718 Q 958.5 728 948.5 728 L 878.5 728 Q 868.5 728 868.5 718 Z" />
	<text x="881.1" y="700.8" id="text108" fill="#000" stroke="none" style="font-family:LMMono10,monospace;font-size:15.2px" >account </text>

	<text x="872.1" y="716.8" id="text108" fill="#000" stroke="none" style="font-family:LMMono10,monospace;font-size:15.2px" >envelope </text>

</g>
<g id="group134">
	<path id="path134" filter="url(#dsFilter)" fill="#fff" d="M 148.5 792 L 247.5 792 L 247.5 888 L 148.5 888 Z" />
	<text x="161.1" y="844.8" id="text134" fill="#000" stroke="none" style="font-family:LMMono10,monospace;font-size:15.2px" >mutemixd </text>

</g>
<g id="group136">
	<path id="path136" filter="url(#dsFilter)" fill="#fff" d="M 724.5 792 L 823.5 792 L 823.5 888 L 724.5 888 Z" />
	<text x="737.1" y="844.8" id="text136" fill="#000" stroke="none" style="font-family:LMMono10,monospace;font-size:15.2px" >muteaccd </text>

</g>
<g id="group138">
	<path id="path138" filter="url(#dsFilter)" fill="#fff" d="M 292.5 866 Q 292.5 856 302.5 856 L 372.5 856 Q 382.5 856 382.5 866 L 382.5 894 Q 382.5 904 372.5 904 L 302.5 904 Q 292.5 904 292.5 894 Z" />
	<text x="305.1" y="876.8" id="text138" fill="#000" stroke="none" style="font-family:LMMono10,monospace;font-size:15.2px" >account </text>

	<text x="296.1" y="892.8" id="text138" fill="#000" stroke="none" style="font-family:LMMono10,monospace;font-size:15.2px" >envelope </text>

</g>
<g id="group140">
	<path id="path140" filter="url(#dsFilter)" fill="#fff" d="M 436.5 866 Q 436.5 856 446.5 856 L 516.5 856 Q 526.5 856 526.5 866 L 526.5 894 Q 526.5 904 516.5 904 L 446.5 904 Q 436.5 904 436.5 894 Z" />
	<text x="449.1" y="876.8" id="text140" fill="#000" stroke="none" style="font-family:LMMono10,monospace;font-size:15.2px" >account </text>

	<text x="440.1" y="892.8" id="text140" fill="#000" stroke="none" style="font-family:LMMono10,monospace;font-size:15.2px" >envelope </text>

</g>
<g id="group142">
	<path id="path142" filter="url(#dsFilter)" fill="#fff" d="M 580.5 866 Q 580.5 856 590.5 856 L 660.5 856 Q 670.5 856 670.5 866 L 670.5 894 Q 670.5 904 660.5 904 L 590.5 904 Q 580.5 904 580.5 894 Z" />
	<text x="593.1" y="876.8" id="text142" fill="#000" stroke="none" style="font-family:LMMono10,monospace;font-size:15.2px" >account </text>

	<text x="584.1" y="892.8" id="text142" fill="#000" stroke="none" style="font-family:LMMono10,monospace;font-size:15.2px" >envelope </text>

</g>
</g>
<g id="lines" stroke="black" stroke-width="2" fill="none" >
<g id="group487">
	<path id="path487" marker-end="url(#Pointer)" d="M 49.5 520 L 49.5 552 " />
</g>
<g id="group494">
	<path id="path494" marker-end="url(#Pointer)" d="M 49.5 632 L 49.5 664 " />
</g>
<g id="group855">
	<path id="path855" marker-end="url(#Pointer)" d="M 103.5 744 L 130.5 792 " />
</g>
<g id="group896">
	<path id="path896" marker-start="url(#iPointer)" d="M 112.5 456 L 139.5 408 " />
</g>
<g id="group1406">
	<path id="path1406" marker-end="url(#Pointer)" d="M 193.5 120 L 193.5 152 " />
</g>
<g id="group1415">
	<path id="path1415" marker-end="url(#Pointer)" d="M 193.5 264 L 193.5 296 " />
</g>
<g id="group1424">
	<path id="path1424" marker-end="url(#Pointer)" d="M 193.5 408 L 193.5 440 " />
</g>
<g id="group1431">
	<path id="path1431" marker-end="url(#Pointer)" d="M 193.5 520 L 193.5 552 " />
</g>
<g id="group1438">
	<path id="path1438" marker-end="url(#Pointer)" d="M 193.5 632 L 193.5 664 " />
</g>
<g id="group1445">
	<path id="path1445" marker-end="url(#Pointer)" d="M 193.5 744 L 193.5 776 " />
</g>
<g id="group1778">
	<path id="path1778" marker-end="url(#Pointer)" d="M 247.5 408 L 274.5 456 " />
</g>
<g id="group1864">
	<path id="path1864" marker-end="url(#Pointer)" d="M 256.5 840 L 706.5 840 " />
</g>
<g id="group1920">
	<path id="path1920" marker-start="url(#iPointer)" d="M 265.5 792 L 292.5 744 " />
</g>
<g id="group2375">
	<path id="path2375" marker-end="url(#Pointer)" d="M 337.5 520 L 337.5 552 " />
</g>
<g id="group2382">
	<path id="path2382" marker-end="url(#Pointer)" d="M 337.5 632 L 337.5 664 " />
</g>
<g id="group4263">
	<path id="path4263" marker-start="url(#iPointer)" d="M 625.5 520 L 625.5 568 " />
</g>
<g id="group4270">
	<path id="path4270" marker-start="url(#iPointer)" d="M 625.5 632 L 625.5 680 " />
</g>
<g id="group4631">
	<path id="path4631" marker-start="url(#iPointer)" d="M 679.5 744 L 715.5 808 " />
</g>
<g id="group4672">
	<path id="path4672" marker-end="url(#Pointer)" d="M 688.5 456 L 715.5 408 " />
</g>
<g id="group5182">
	<path id="path5182" marker-start="url(#iPointer)" d="M 769.5 120 L 769.5 168 " />
</g>
<g id="group5191">
	<path id="path5191" marker-start="url(#iPointer)" d="M 769.5 264 L 769.5 312 " />
</g>
<g id="group5200">
	<path id="path5200" marker-start="url(#iPointer)" d="M 769.5 408 L 769.5 456 " />
</g>
<g id="group5207">
	<path id="path5207" marker-start="url(#iPointer)" d="M 769.5 520 L 769.5 568 " />
</g>
<g id="group5214">
	<path id="path5214" marker-start="url(#iPointer)" d="M 769.5 632 L 769.5 680 " />
</g>
<g id="group5221">
	<path id="path5221" marker-start="url(#iPointer)" d="M 769.5 744 L 769.5 792 " />
</g>
<g id="group5554">
	<path id="path5554" marker-start="url(#iPointer)" d="M 823.5 408 L 859.5 472 " />
</g>
<g id="group5696">
	<path id="path5696" marker-end="url(#Pointer)" d="M 841.5 792 L 868.5 744 " />
</g>
<g id="group6151">
	<path id="path6151" marker-start="url(#iPointer)" d="M 913.5 520 L 913.5 568 " />
</g>
<g id="group6158">
	<path id="path6158" marker-start="url(#iPointer)" d="M 913.5 632 L 913.5 680 " />
</g>
</g>
<g id="text" fill="black" style="font-family:LMMono10,monospace;font-size:15.2px" >
<text x="206.1" y="140.8" id="text2" fill="#000" >mutectrl </text>
<text x="683.1" y="140.8" id="text3" fill="#000" >mutectrl </text>
<text x="206.1" y="284.8" id="text8" fill="#000" >mutectrl </text>
<text x="683.1" y="284.8" id="text9" fill="#000" >mutectrl </text>
<text x="269.1" y="428.8" id="text14" fill="#000" >mutectrl </text>
<text x="620.1" y="428.8" id="text15" fill="#000" >mutectrl </text>
<text x="107.1" y="492.8" id="text23" fill="#000" >... </text>
<text x="251.1" y="492.8" id="text25" fill="#000" >... </text>
<text x="683.1" y="492.8" id="text28" fill="#000" >... </text>
<text x="827.1" y="492.8" id="text30" fill="#000" >... </text>
<text x="350.1" y="540.8" id="text32" fill="#000" >mutecrypt </text>
<text x="530.1" y="540.8" id="text33" fill="#000" >mutecrypt </text>
<text x="107.1" y="604.8" id="text41" fill="#000" >... </text>
<text x="251.1" y="604.8" id="text43" fill="#000" >... </text>
<text x="683.1" y="604.8" id="text46" fill="#000" >... </text>
<text x="827.1" y="604.8" id="text48" fill="#000" >... </text>
<text x="350.1" y="652.8" id="text50" fill="#000" >mutectrl </text>
<text x="539.1" y="652.8" id="text51" fill="#000" >mutectrl </text>
<text x="107.1" y="716.8" id="text59" fill="#000" >... </text>
<text x="251.1" y="716.8" id="text61" fill="#000" >... </text>
<text x="683.1" y="716.8" id="text64" fill="#000" >... </text>
<text x="827.1" y="716.8" id="text66" fill="#000" >... </text>
<text x="287.1" y="780.8" id="text68" fill="#000" >muteproto </text>
<text x="602.1" y="780.8" id="text69" fill="#000" >muteproto </text>
<text x="395.1" y="892.8" id="text76" fill="#000" >... </text>
<text x="539.1" y="892.8" id="text78" fill="#000" >... </text>
</g>
</svg>
