<?xml version="1.0" standalone="no"?>
<!DOCTYPE svg PUBLIC "-//W3C//DTD SVG 1.1//EN" 
  "http://www.w3.org/Graphics/SVG/1.1/DTD/svg11.dtd">
<!-- Created with ASCIIToSVG (http://9vx.org/~dho/a2s/) -->
<svg width="972px" height="384px" version="1.1"
  xmlns="http://www.w3.org/2000/svg" xmlns:xlink="http://www.w3.org/1999/xlink">
  <defs>
    <filter id="dsFilter" width="150%" height="150%">
      <feOffset result="offOut" in="SourceGraphic" dx="3" dy="3"/>
      <feColorMatrix result="matrixOut" in="offOut" type="matrix" values="0.2 0 0 0 0 0 0.2 0 0 0 0 0 0.2 0 0 0 0 0 1 0"/>
      <feBlend in="SourceGraphic" in2="matrixOut" mode="normal"/>
    </filter>
    <marker id="iPointer"
      viewBox="0 0 10 10" refX="5" refY="5" 
      markerUnits="strokeWidth"
      markerWidth="8" markerHeight="7"
      orient="auto">
      <path d="M 10 0 L 10 10 L 0 5 z" />
    </marker>
    <marker id="Pointer"
      viewBox="0 0 10 10" refX="5" refY="5" 
      markerUnits="strokeWidth"
      markerWidth="8" markerHeight="7"
      orient="auto">
      <path d="M 0 0 L 10 5 L 0 10 z" />
    </marker>
  </defs><g id="boxes" stroke="black" stroke-width="2" fill="none" >
<g id="group2">
	<path id="path2" filter="url(#dsFilter)" fill="#fff" d="M 22.5 72 L 121.5 72 L 121.5 296 L 22.5 296 Z" />
</g>
<g id="group4">
	<path id="path4" filter="url(#dsFilter)" fill="#fff" d="M 220.5 72 L 319.5 72 L 319.5 296 L 220.5 296 Z" />
</g>
<g id="group6">
	<path id="path6" filter="url(#dsFilter)" fill="#fff" d="M 409.5 72 L 508.5 72 L 508.5 296 L 409.5 296 Z" />
</g>
<g id="group8">
	<path id="path8" filter="url(#dsFilter)" fill="#fff" d="M 607.5 72 L 706.5 72 L 706.5 296 L 607.5 296 Z" />
</g>
<g id="group10">
	<path id="path10" filter="url(#dsFilter)" fill="#fff" d="M 31.5 114 Q 31.5 104 41.5 104 L 93.5 104 Q 103.5 104 103.5 114 L 103.5 126 Q 103.5 136 93.5 136 L 41.5 136 Q 31.5 136 31.5 126 Z" />
	<text x="35.1" y="124.8" id="text10" fill="#000" stroke="none" style="font-family:LMMono10,monospace;font-size:15.2px" >genesis </text>

</g>
<g id="group12">
	<path id="path12" filter="url(#dsFilter)" fill="#fff" d="M 247.5 114 Q 247.5 104 257.5 104 L 282.5 104 Q 292.5 104 292.5 114 L 292.5 126 Q 292.5 136 282.5 136 L 257.5 136 Q 247.5 136 247.5 126 Z" />
	<text x="251.1" y="124.8" id="text12" fill="#000" stroke="none" style="font-family:LMMono10,monospace;font-size:15.2px" >hash </text>

</g>
<g id="group14">
	<path id="path14" filter="url(#dsFilter)" fill="#fff" d="M 436.5 114 Q 436.5 104 446.5 104 L 471.5 104 Q 481.5 104 481.5 114 L 481.5 126 Q 481.5 136 471.5 136 L 446.5 136 Q 436.5 136 436.5 126 Z" />
	<text x="440.1" y="124.8" id="text14" fill="#000" stroke="none" style="font-family:LMMono10,monospace;font-size:15.2px" >hash </text>

</g>
<g id="group16">
	<path id="path16" filter="url(#dsFilter)" fill="#fff" d="M 634.5 114 Q 634.5 104 644.5 104 L 669.5 104 Q 679.5 104 679.5 114 L 679.5 126 Q 679.5 136 669.5 136 L 644.5 136 Q 634.5 136 634.5 126 Z" />
	<text x="638.1" y="124.8" id="text16" fill="#000" stroke="none" style="font-family:LMMono10,monospace;font-size:15.2px" >hash </text>

</g>
<g id="groupDB">
	<path id="pathDB" d="M 868.5 129.6 L 868.5 232 A 49.5 19.2 0 0 0 967.5 232 V 129.6 A 49.5 19.2 0 0 0 868.5 129.6 Z " filter="url(#dsFilter)" fill="#fff"  />
	<path id="pathDB" d="M 868.5 129.6 A 49.5 19.2 0 0 0 967.5 129.6 "  />
	<text x="881.1" y="188.8" id="text10" fill="#000" stroke="none" style="font-family:LMMono10,monospace;font-size:15.2px" >external </text>

	<text x="899.1" y="204.8" id="text11" fill="#000" stroke="none" style="font-family:LMMono10,monospace;font-size:15.2px" >data </text>

</g>
<g id="group34">
	<path id="path34" filter="url(#dsFilter)" fill="#fff" d="M 49.5 178 Q 49.5 168 59.5 168 L 84.5 168 Q 94.5 168 94.5 178 L 94.5 190 Q 94.5 200 84.5 200 L 59.5 200 Q 49.5 200 49.5 190 Z" />
	<text x="53.1" y="188.8" id="text34" fill="#000" stroke="none" style="font-family:LMMono10,monospace;font-size:15.2px" >data </text>

</g>
<g id="group36">
	<path id="path36" filter="url(#dsFilter)" fill="#fff" d="M 247.5 178 Q 247.5 168 257.5 168 L 282.5 168 Q 292.5 168 292.5 178 L 292.5 190 Q 292.5 200 282.5 200 L 257.5 200 Q 247.5 200 247.5 190 Z" />
	<text x="251.1" y="188.8" id="text36" fill="#000" stroke="none" style="font-family:LMMono10,monospace;font-size:15.2px" >data </text>

</g>
<g id="group38">
	<path id="path38" filter="url(#dsFilter)" fill="#fff" d="M 436.5 178 Q 436.5 168 446.5 168 L 471.5 168 Q 481.5 168 481.5 178 L 481.5 190 Q 481.5 200 471.5 200 L 446.5 200 Q 436.5 200 436.5 190 Z" />
	<text x="440.1" y="188.8" id="text38" fill="#000" stroke="none" style="font-family:LMMono10,monospace;font-size:15.2px" >data </text>

</g>
<g id="group40">
	<path id="path40" filter="url(#dsFilter)" fill="#fff" d="M 634.5 178 Q 634.5 168 644.5 168 L 669.5 168 Q 679.5 168 679.5 178 L 679.5 190 Q 679.5 200 669.5 200 L 644.5 200 Q 634.5 200 634.5 190 Z" />
	<text x="638.1" y="188.8" id="text40" fill="#000" stroke="none" style="font-family:LMMono10,monospace;font-size:15.2px" >data </text>

</g>
<g id="group55">
	<path id="path55" filter="url(#dsFilter)" fill="#fff" d="M 49.5 242 Q 49.5 232 59.5 232 L 84.5 232 Q 94.5 232 94.5 242 L 94.5 254 Q 94.5 264 84.5 264 L 59.5 264 Q 49.5 264 49.5 254 Z" />
	<text x="53.1" y="252.8" id="text55" fill="#000" stroke="none" style="font-family:LMMono10,monospace;font-size:15.2px" >hash </text>

</g>
<g id="group57">
	<path id="path57" filter="url(#dsFilter)" fill="#fff" d="M 247.5 242 Q 247.5 232 257.5 232 L 282.5 232 Q 292.5 232 292.5 242 L 292.5 254 Q 292.5 264 282.5 264 L 257.5 264 Q 247.5 264 247.5 254 Z" />
	<text x="251.1" y="252.8" id="text57" fill="#000" stroke="none" style="font-family:LMMono10,monospace;font-size:15.2px" >hash </text>

</g>
<g id="group59">
	<path id="path59" filter="url(#dsFilter)" fill="#fff" d="M 436.5 242 Q 436.5 232 446.5 232 L 471.5 232 Q 481.5 232 481.5 242 L 481.5 254 Q 481.5 264 471.5 264 L 446.5 264 Q 436.5 264 436.5 254 Z" />
	<text x="440.1" y="252.8" id="text59" fill="#000" stroke="none" style="font-family:LMMono10,monospace;font-size:15.2px" >hash </text>

</g>
<g id="group61">
	<path id="path61" filter="url(#dsFilter)" fill="#fff" d="M 634.5 242 Q 634.5 232 644.5 232 L 669.5 232 Q 679.5 232 679.5 242 L 679.5 254 Q 679.5 264 669.5 264 L 644.5 264 Q 634.5 264 634.5 254 Z" />
	<text x="638.1" y="252.8" id="text61" fill="#000" stroke="none" style="font-family:LMMono10,monospace;font-size:15.2px" >hash </text>

</g>
</g>
<g id="lines" stroke="black" stroke-width="2" fill="none" >
<g id="group401">
	<path id="path401" marker-end="url(#Pointer)" d="M 121.5 120 L 220.5 120 L 238.5 120 " />
</g>
<g id="group930">
	<path id="path930" marker-end="url(#Pointer)" d="M 319.5 120 L 409.5 120 L 427.5 120 " />
</g>
<g id="group1435">
	<path id="path1435" marker-end="url(#Pointer)" d="M 508.5 120 L 607.5 120 L 625.5 120 " />
</g>
<g id="group2241">
	<path id="path2241" stroke-dasharray="5 5" d="M 805.5 328 L 14.5 328 Q 4.5 328 4.5 318 L 4.5 18 Q 4.5 8 14.5 8 L 804.5 8 Q 814.5 8 814.5 18 L 814.5 328 " />
</g>
</g>
<g id="text" fill="black" style="font-family:LMMono10,monospace;font-size:15.2px" >
<text x="17.1" y="44.8" id="text0" fill="#000" >KEYSERVER </text>
<text x="737.1" y="188.8" id="text9" fill="#000" >..... </text>
</g>
</svg>
