<?xml version="1.0" standalone="no"?>
<!DOCTYPE svg PUBLIC "-//W3C//DTD SVG 1.1//EN" 
  "http://www.w3.org/Graphics/SVG/1.1/DTD/svg11.dtd">
<!-- Created with ASCIIToSVG (http://9vx.org/~dho/a2s/) -->
<svg width="1008px" height="752px" version="1.1"
  xmlns="http://www.w3.org/2000/svg" xmlns:xlink="http://www.w3.org/1999/xlink">
  <defs>
    <filter id="dsFilter" width="150%" height="150%">
      <feOffset result="offOut" in="SourceGraphic" dx="3" dy="3"/>
      <feColorMatrix result="matrixOut" in="offOut" type="matrix" values="0.2 0 0 0 0 0 0.2 0 0 0 0 0 0.2 0 0 0 0 0 1 0"/>
      <feBlend in="SourceGraphic" in2="matrixOut" mode="normal"/>
    </filter>
    <marker id="iPointer"
      viewBox="0 0 10 10" refX="5" refY="5" 
      markerUnits="strokeWidth"
      markerWidth="8" markerHeight="7"
      orient="auto">
      <path d="M 10 0 L 10 10 L 0 5 z" />
    </marker>
    <marker id="Pointer"
      viewBox="0 0 10 10" refX="5" refY="5" 
      markerUnits="strokeWidth"
      markerWidth="8" markerHeight="7"
      orient="auto">
      <path d="M 0 0 L 10 5 L 0 10 z" />
    </marker>
  </defs><g id="boxes" stroke="black" stroke-width="2" fill="none" >
<g id="group3">
	<path id="path3" filter="url(#dsFilter)" fill="#fff" d="M 22.5 72 L 121.5 72 L 121.5 296 L 22.5 296 Z" />
</g>
<g id="group5">
	<path id="path5" filter="url(#dsFilter)" fill="#fff" d="M 220.5 72 L 319.5 72 L 319.5 296 L 220.5 296 Z" />
</g>
<g id="group7">
	<path id="path7" filter="url(#dsFilter)" fill="#fff" d="M 409.5 72 L 508.5 72 L 508.5 296 L 409.5 296 Z" />
</g>
<g id="groupLE">
	<path id="pathLE" filter="url(#dsFilter)" fill="#f2fa50" d="M 607.5 72 L 706.5 72 L 706.5 296 L 607.5 296 Z" />
</g>
<g id="group11">
	<path id="path11" filter="url(#dsFilter)" fill="#fff" d="M 31.5 114 Q 31.5 104 41.5 104 L 93.5 104 Q 103.5 104 103.5 114 L 103.5 126 Q 103.5 136 93.5 136 L 41.5 136 Q 31.5 136 31.5 126 Z" />
	<text x="35.1" y="124.8" id="text11" fill="#000" stroke="none" style="font-family:LMMono10,monospace;font-size:15.2px" >genesis </text>

</g>
<g id="group13">
	<path id="path13" filter="url(#dsFilter)" fill="#fff" d="M 247.5 114 Q 247.5 104 257.5 104 L 282.5 104 Q 292.5 104 292.5 114 L 292.5 126 Q 292.5 136 282.5 136 L 257.5 136 Q 247.5 136 247.5 126 Z" />
	<text x="251.1" y="124.8" id="text13" fill="#000" stroke="none" style="font-family:LMMono10,monospace;font-size:15.2px" >hash </text>

</g>
<g id="group15">
	<path id="path15" filter="url(#dsFilter)" fill="#fff" d="M 436.5 114 Q 436.5 104 446.5 104 L 471.5 104 Q 481.5 104 481.5 114 L 481.5 126 Q 481.5 136 471.5 136 L 446.5 136 Q 436.5 136 436.5 126 Z" />
	<text x="440.1" y="124.8" id="text15" fill="#000" stroke="none" style="font-family:LMMono10,monospace;font-size:15.2px" >hash </text>

</g>
<g id="group17">
	<path id="path17" filter="url(#dsFilter)" fill="#fff" d="M 634.5 114 Q 634.5 104 644.5 104 L 669.5 104 Q 679.5 104 679.5 114 L 679.5 126 Q 679.5 136 669.5 136 L 644.5 136 Q 634.5 136 634.5 126 Z" />
	<text x="638.1" y="124.8" id="text17" fill="#000" stroke="none" style="font-family:LMMono10,monospace;font-size:15.2px" >hash </text>

</g>
<g id="groupDB">
	<path id="pathDB" d="M 868.5 129.6 L 868.5 232 A 49.5 19.2 0 0 0 967.5 232 V 129.6 A 49.5 19.2 0 0 0 868.5 129.6 Z " filter="url(#dsFilter)" fill="#fff"  />
	<path id="pathDB" d="M 868.5 129.6 A 49.5 19.2 0 0 0 967.5 129.6 "  />
	<text x="881.1" y="188.8" id="text10" fill="#000" stroke="none" style="font-family:LMMono10,monospace;font-size:15.2px" >external </text>

	<text x="899.1" y="204.8" id="text11" fill="#000" stroke="none" style="font-family:LMMono10,monospace;font-size:15.2px" >data </text>

</g>
<g id="group35">
	<path id="path35" filter="url(#dsFilter)" fill="#fff" d="M 49.5 178 Q 49.5 168 59.5 168 L 84.5 168 Q 94.5 168 94.5 178 L 94.5 190 Q 94.5 200 84.5 200 L 59.5 200 Q 49.5 200 49.5 190 Z" />
	<text x="53.1" y="188.8" id="text35" fill="#000" stroke="none" style="font-family:LMMono10,monospace;font-size:15.2px" >data </text>

</g>
<g id="group37">
	<path id="path37" filter="url(#dsFilter)" fill="#fff" d="M 247.5 178 Q 247.5 168 257.5 168 L 282.5 168 Q 292.5 168 292.5 178 L 292.5 190 Q 292.5 200 282.5 200 L 257.5 200 Q 247.5 200 247.5 190 Z" />
	<text x="251.1" y="188.8" id="text37" fill="#000" stroke="none" style="font-family:LMMono10,monospace;font-size:15.2px" >data </text>

</g>
<g id="group39">
	<path id="path39" filter="url(#dsFilter)" fill="#fff" d="M 436.5 178 Q 436.5 168 446.5 168 L 471.5 168 Q 481.5 168 481.5 178 L 481.5 190 Q 481.5 200 471.5 200 L 446.5 200 Q 436.5 200 436.5 190 Z" />
	<text x="440.1" y="188.8" id="text39" fill="#000" stroke="none" style="font-family:LMMono10,monospace;font-size:15.2px" >data </text>

</g>
<g id="group41">
	<path id="path41" filter="url(#dsFilter)" fill="#fff" d="M 634.5 178 Q 634.5 168 644.5 168 L 669.5 168 Q 679.5 168 679.5 178 L 679.5 190 Q 679.5 200 669.5 200 L 644.5 200 Q 634.5 200 634.5 190 Z" />
	<text x="638.1" y="188.8" id="text41" fill="#000" stroke="none" style="font-family:LMMono10,monospace;font-size:15.2px" >data </text>

</g>
<g id="group56">
	<path id="path56" filter="url(#dsFilter)" fill="#fff" d="M 49.5 242 Q 49.5 232 59.5 232 L 84.5 232 Q 94.5 232 94.5 242 L 94.5 254 Q 94.5 264 84.5 264 L 59.5 264 Q 49.5 264 49.5 254 Z" />
	<text x="53.1" y="252.8" id="text56" fill="#000" stroke="none" style="font-family:LMMono10,monospace;font-size:15.2px" >hash </text>

</g>
<g id="group58">
	<path id="path58" filter="url(#dsFilter)" fill="#fff" d="M 247.5 242 Q 247.5 232 257.5 232 L 282.5 232 Q 292.5 232 292.5 242 L 292.5 254 Q 292.5 264 282.5 264 L 257.5 264 Q 247.5 264 247.5 254 Z" />
	<text x="251.1" y="252.8" id="text58" fill="#000" stroke="none" style="font-family:LMMono10,monospace;font-size:15.2px" >hash </text>

</g>
<g id="group60">
	<path id="path60" filter="url(#dsFilter)" fill="#fff" d="M 436.5 242 Q 436.5 232 446.5 232 L 471.5 232 Q 481.5 232 481.5 242 L 481.5 254 Q 481.5 264 471.5 264 L 446.5 264 Q 436.5 264 436.5 254 Z" />
	<text x="440.1" y="252.8" id="text60" fill="#000" stroke="none" style="font-family:LMMono10,monospace;font-size:15.2px" >hash </text>

</g>
<g id="group62">
	<path id="path62" filter="url(#dsFilter)" fill="#fff" d="M 634.5 242 Q 634.5 232 644.5 232 L 669.5 232 Q 679.5 232 679.5 242 L 679.5 254 Q 679.5 264 669.5 264 L 644.5 264 Q 634.5 264 634.5 254 Z" />
	<text x="638.1" y="252.8" id="text62" fill="#000" stroke="none" style="font-family:LMMono10,monospace;font-size:15.2px" >hash </text>

</g>
<g id="group85">
	<path id="path85" filter="url(#dsFilter)" fill="#fff" d="M 436.5 466 Q 436.5 456 446.5 456 L 570.5 456 Q 580.5 456 580.5 466 L 580.5 542 Q 580.5 552 570.5 552 L 446.5 552 Q 436.5 552 436.5 542 Z" />
	<text x="449.1" y="524.8" id="text85" fill="#000" stroke="none" style="font-family:LMMono10,monospace;font-size:15.2px" >encrypted </text>

	<text x="449.1" y="540.8" id="text85" fill="#000" stroke="none" style="font-family:LMMono10,monospace;font-size:15.2px" >messsage </text>

</g>
<g id="groupLE">
	<path id="pathLE" filter="url(#dsFilter)" fill="#f2fa50" d="M 517.5 472 L 562.5 472 L 562.5 504 L 517.5 504 Z" />
</g>
<g id="groupPC">
	<path id="pathPC" d="M 6.593023296 542.883720928 L 6.593023296 607.37984448 C 6.58608309 610.32306896 6.03588834 613.65260832 10.509502842 613.40966016 L 56.44046466 613.40966016 C 61.171839 621.37011056 34.43404554 618.71571616 28.53348822 618.85271344 C 28.09335006 638.903752 42.19193736 645.52432064 65.1927384 644.85596512 C 88.54855326 645.5843056 103.91675562 639.14270176 102.92622048 619.03478064 C 97.74591192 619.23511392 68.77176336 621.1144952 72.86376456 613.10663968 L 124.81255782 613.10663968 C 128.25230364 613.07057344 129.1760802 611.3571952 128.90597274 608.84789344 L 128.90597274 543.813953504 C 128.85198678 541.908590688 126.77287212 539.373014064 123.37089354 538.89388288 L 11.127906936 538.89388288 C 8.537898942 538.945748848 6.42108483 539.558437008 6.593023296 542.883720928 Z " filter="url(#dsFilter)" fill="#fff"  />
	<text x="44.1" y="588.8" id="text18" fill="#000" stroke="none" style="font-family:LMMono10,monospace;font-size:15.2px" >Alice </text>

</g>
<g id="groupPC">
	<path id="pathPC" d="M 879.593023296 542.883720928 L 879.593023296 607.37984448 C 879.58608309 610.32306896 879.03588834 613.65260832 883.509502842 613.40966016 L 929.44046466 613.40966016 C 934.171839 621.37011056 907.43404554 618.71571616 901.53348822 618.85271344 C 901.09335006 638.903752 915.19193736 645.52432064 938.1927384 644.85596512 C 961.54855326 645.5843056 976.91675562 639.14270176 975.92622048 619.03478064 C 970.74591192 619.23511392 941.77176336 621.1144952 945.86376456 613.10663968 L 997.81255782 613.10663968 C 1001.25230364 613.07057344 1002.1760802 611.3571952 1001.90597274 608.84789344 L 1001.90597274 543.813953504 C 1001.85198678 541.908590688 999.77287212 539.373014064 996.37089354 538.89388288 L 884.127906936 538.89388288 C 881.537898942 538.945748848 879.42108483 539.558437008 879.593023296 542.883720928 Z " filter="url(#dsFilter)" fill="#fff"  />
	<text x="926.1" y="588.8" id="text19" fill="#000" stroke="none" style="font-family:LMMono10,monospace;font-size:15.2px" >Bob </text>

</g>
<g id="group97">
	<path id="path97" filter="url(#dsFilter)" fill="#fff" d="M 436.5 626 Q 436.5 616 446.5 616 L 570.5 616 Q 580.5 616 580.5 626 L 580.5 702 Q 580.5 712 570.5 712 L 446.5 712 Q 436.5 712 436.5 702 Z" />
	<text x="449.1" y="684.8" id="text97" fill="#000" stroke="none" style="font-family:LMMono10,monospace;font-size:15.2px" >encrypted </text>

	<text x="449.1" y="700.8" id="text97" fill="#000" stroke="none" style="font-family:LMMono10,monospace;font-size:15.2px" >messsage </text>

</g>
<g id="groupLE">
	<path id="pathLE" filter="url(#dsFilter)" fill="#f2fa50" d="M 517.5 632 L 562.5 632 L 562.5 664 L 517.5 664 Z" />
</g>
</g>
<g id="lines" stroke="black" stroke-width="2" fill="none" >
<g id="group459">
	<path id="path459" marker-start="url(#iPointer)" marker-end="url(#Pointer)" d="M 67.5 344 L 67.5 520 " />
</g>
<g id="group658">
	<path id="path658" marker-start="url(#iPointer)" marker-end="url(#Pointer)" d="M 103.5 520 L 103.5 376 L 895.5 376 L 895.5 264 " />
</g>
<g id="group727">
	<path id="path727" marker-end="url(#Pointer)" d="M 121.5 120 L 220.5 120 L 238.5 120 " />
</g>
<g id="group897">
	<path id="path897" marker-end="url(#Pointer)" d="M 148.5 568 L 859.5 568 " />
</g>
<g id="group899">
	<path id="path899" marker-start="url(#iPointer)" d="M 148.5 600 L 868.5 600 " />
</g>
<g id="group1762">
	<path id="path1762" marker-end="url(#Pointer)" d="M 319.5 120 L 409.5 120 L 427.5 120 " />
</g>
<g id="group2750">
	<path id="path2750" marker-end="url(#Pointer)" d="M 508.5 120 L 607.5 120 L 625.5 120 " />
</g>
<g id="group4315">
	<path id="path4315" stroke-dasharray="5 5" d="M 805.5 328 L 14.5 328 Q 4.5 328 4.5 318 L 4.5 18 Q 4.5 8 14.5 8 L 804.5 8 Q 814.5 8 814.5 18 L 814.5 328 " />
</g>
<g id="group4439">
	<path id="path4439" marker-start="url(#iPointer)" marker-end="url(#Pointer)" d="M 832.5 56 L 994.5 56 L 994.5 520 " />
</g>
<g id="group5016">
	<path id="path5016" marker-start="url(#iPointer)" marker-end="url(#Pointer)" d="M 940.5 264 L 940.5 520 " />
</g>
</g>
<g id="text" fill="black" style="font-family:LMMono10,monospace;font-size:15.2px" >
<text x="17.1" y="44.8" id="text0" fill="#000" >KEYSERVER </text>
<text x="737.1" y="188.8" id="text9" fill="#000" >..... </text>
</g>
</svg>
